<?xml version="1.0" encoding="UTF-8"?>
<!-- Generator: Adobe Illustrator 26.3.1, SVG Export Plug-In . SVG Version: 6.00 Build 0)  -->
<svg version="1.1" xmlns="http://www.w3.org/2000/svg" xmlns:xlink="http://www.w3.org/1999/xlink" x="0px" y="0px" viewBox="0 0 48 48" style="enable-background:new 0 0 48 48;" xml:space="preserve"><script xmlns="" id="__gaOptOutExtension"/>
<style type="text/css">
	.st0{fill:#E9EDF4;}
	.st1{fill-rule:evenodd;clip-rule:evenodd;fill:#1F4D8F;}
</style>
<g id="Layer_1">
	<path class="st0" d="M8,0h32c4.4,0,8,3.6,8,8v32c0,4.4-3.6,8-8,8H8c-4.4,0-8-3.6-8-8V8C0,3.6,3.6,0,8,0z"/>
</g>
<g id="Layer_5">
	<g id="surface1">
		<path class="st1" d="M35.3,25.8L33.9,27c-0.6,0.5-1.4,0.4-1.9-0.2l-0.5-0.6c-0.5-0.6-0.4-1.4,0.2-1.9l1.4-1.2    c0.6-0.5,1.4-0.4,1.9,0.2l0.5,0.6C36,24.4,35.9,25.3,35.3,25.8 M31.8,23.6c-0.6,0.5-1.4,0.4-1.9-0.2l-0.6-0.7    c-0.5-0.6-0.4-1.4,0.2-1.9l3.1-2.6c0.6-0.5,1.4-0.4,1.9,0.2L35,19c0.5,0.6,0.4,1.4-0.2,1.9L31.8,23.6z M27.5,20.1l-0.6-0.7    c-0.5-0.6-0.4-1.4,0.2-1.9l3.1-2.6c0.6-0.5,1.4-0.4,1.9,0.2l0.6,0.7c0.5,0.6,0.4,1.4-0.2,1.9l-3.1,2.6    C28.8,20.8,28,20.7,27.5,20.1 M35.9,30c3.1-5.5,1.9-12.6-3.1-16.9c-5-4.2-12.2-4.2-17.1-0.3c-3.4-1.6-6.1-2.1-7.1-0.9    c-1.1,1.3,0,4.1,2.5,7.5c0.2-0.6,0.4-1.1,0.7-1.7c-1.5-2.2-2.1-4-1.5-4.7c0.6-0.7,2.3-0.5,4.5,0.5c-0.4,0.4-0.7,0.7-1.1,1.1    c-0.8,1-1.5,2-2,3.1c1.9,2.7,5.2,6.3,9.2,9.7c0.2,0.1,0.3,0.3,0.5,0.4c0.4-0.3,0.7-0.7,0.9-1.1c0.4-1.2-0.4-2.1-1-2.9    c-0.8-1-1.5-2-1.9-3.3c0,0-0.1-0.4-0.3-0.6c-0.2-0.2-1.4-1.5-1.9-1.7c-0.5-0.2-1.1-0.4-2-0.3c0,0-1.7-0.1-0.2-1.3    c0,0,1.9-1.8,4-0.4c0,0,1.2,0.8,3.1,2.7c0,0,0.5,0.9,1.5,1.2c0,0,4.6,0.7,5.6,6.7c0,0,0.5,3-1.3,6c1.2,0.8,2.4,1.5,3.5,2    c1-0.7,2-1.5,2.8-2.5c0.4-0.4,0.7-0.9,1-1.4c1.6,2.3,2.3,4.1,1.6,4.9c-0.7,0.8-2.7,0.4-5.5-1c-0.5,0.3-0.9,0.6-1.4,0.8    c3.8,2,6.8,2.6,7.9,1.3C39,35.7,38.1,33.2,35.9,30 M23.9,37c2.2,0,4.3-0.4,6.3-1.4c-1-0.5-2-1.1-3-1.7L23.9,37z M15.3,33.7    c0.9-0.9,1.8-1.7,2.8-2.6c0.8-0.7,1.6-1.4,2.4-2.2c-0.2-0.2-0.4-0.3-0.5-0.5c-3.6-3.1-6.6-6.3-8.7-9C9.6,24.5,11.1,30.1,15.3,33.7    "/>
	</g>
</g>
</svg>